<?xml version="1.0" encoding="utf-8"?>
<!-- Svg Vector Icons : http://www.onlinewebfonts.com/icon -->
<!DOCTYPE svg PUBLIC "-//W3C//DTD SVG 1.1//EN" "http://www.w3.org/Graphics/SVG/1.1/DTD/svg11.dtd">
<svg id="reward" version="1.1" xmlns="http://www.w3.org/2000/svg" xmlns:xlink="http://www.w3.org/1999/xlink" x="0px" y="0px" viewBox="0 0 1000 1000" enable-background="new 0 0 1000 1000" xml:space="preserve">
<metadata> Svg Vector Icons : http://www.onlinewebfonts.com/icon </metadata>
<g><path d="M631.3,628.7c0-18.7-8.2-35.8-21.2-48.7c-12.7-11.8-30.1-19.3-48.4-19.8l-2.5-0.2h-17.8h-17.7H476h-17.8h-17.2c-6.8,0-13-2.7-17.7-7c-4.2-4-7.3-9.9-7.3-16.3v-23v-0.8v-26.5v-0.5v-23c0-6.4,3.1-12.6,7.3-16.6c4.8-4.3,10.9-6.9,17.7-6.9h17.2H476h47.6h17.7h17.8c6.8,0,13,2.7,17.7,6.9c4.5,4,7,10.2,7,16.6c0,12.3,10.4,22.5,24,22.5c12.7,0,23.4-10.2,23.4-22.5c0-19-8.2-35.9-21.2-48.7c-13-12.3-31.3-20.3-51-20.3h-35.5v-19.3c0-12.8-10.4-22.7-23.4-22.7c-13.5,0-24.2,9.9-24.2,22.7v19.3h-35c-19.7,0-38.1,8-51.6,20.3c-12.9,12.9-21.4,29.7-21.4,48.7v23v0.5v26.5v0.8v23c0,18.7,8.5,35.9,21.4,48.2c13,12,30.2,19.8,48.7,20.3h2.8h17.2H476h47.6h30.2h5.4c6.4,0,13,2.7,17.2,7c4.5,4.3,7.6,10.2,7.6,16.6c0,24.6,0,49.2,0,73.9c0,5.9-2.5,11.8-7,16.3c-4.8,4.5-11,6.9-17.7,6.9h-5.4h-30.2H476h-17.8h-17.2c-6.8,0-13-2.4-17.7-6.9c-4.2-4.6-7.3-10.4-7.3-16.3c0-12.3-10.5-22.7-23.4-22.7c-13.5,0-24.2,10.4-24.2,22.7c0,18.7,8.2,35.9,21.5,48.4c13.2,12.3,31.5,20.1,51.3,20.1h35v19.5c0,12.6,10.7,22.8,24.2,22.8c13,0,23.4-10.2,23.4-22.8v-19.5h35.5c19.7,0,38-7.8,51-20.1c13.5-12.6,21.2-29.7,21.2-48.4v-50.3v-2.1L631.3,628.7L631.3,628.7z M958.1,929L958.1,929c-18.9-22.7-37.5-59.4-51.5-99.8c-13.5-39.6-22.3-82.2-22.3-117.7V533.7c0-100.4-43.4-191.9-113-257.7c-37.5-35.3-79.5-62.1-124.5-79.2c-22.3-8.6-43.9-15-67-19.3L689.1,74.2c6.7-7,11-16.4,11-26.8c0-20.9-17.2-37.5-39.4-37.5H339.6c-10.4,0-20.3,3.5-28.2,10.7c-15.5,15-15.5,38.5,0,53.5l108.8,103.3c-22.8,4.3-45.4,10.7-67.1,19.3c-44.8,17.1-87.1,43.9-124.8,79.2c-35.2,33.4-64,73.9-83.4,118.3c-18.6,43.1-29,90.5-29,139.4v177.7c0,35.6-9,78.2-22.8,117.7c-13.5,39.3-31.3,75.2-50.1,97.7c-6.2,7-9.9,15.8-9.9,25.2c0,21.4,17.5,38,39.2,38h855.1c8.7,0,17.5-2.7,24.8-8.3C969.1,968.6,971.9,945,958.1,929L958.1,929z M564.8,84.9L564.8,84.9l-64.5,61.6l-65.1-61.6H564.8L564.8,84.9z M143,914.5L143,914.5c9.3-19.3,18.6-40.4,25.9-62.1c16.1-46.6,26.5-97.4,26.5-141V533.7c0-39.4,7.9-76.5,23.1-110.6c14.9-35.3,38.3-66.9,66.5-94.2c29.6-28.4,63.1-48.7,98.3-62.6c37.5-14.7,77.5-21.4,116.4-21.1h1.1c39.4-0.2,78.6,6.4,116.1,21.1c34.7,13.9,68.2,34.3,98.3,62.6c55.5,53,89.9,125.2,89.9,204.7v177.7c0,43.6,9.9,94.4,25.9,141c7.9,21.7,16.6,42.8,26.2,62.1H143L143,914.5z"/></g>
</svg>