<?xml version="1.0" encoding="utf-8"?>
<!-- Svg Vector Icons : http://www.onlinewebfonts.com/icon -->
<!DOCTYPE svg PUBLIC "-//W3C//DTD SVG 1.1//EN" "http://www.w3.org/Graphics/SVG/1.1/DTD/svg11.dtd">
<svg id="maze" version="1.1" xmlns="http://www.w3.org/2000/svg" xmlns:xlink="http://www.w3.org/1999/xlink" x="0px" y="0px" viewBox="0 0 1000 1000" enable-background="new 0 0 1000 1000" xml:space="preserve">
<metadata> Svg Vector Icons : http://www.onlinewebfonts.com/icon </metadata>
<g><g transform="matrix(1 0 0 -1 0 1920)"><path d="M455.5,1152.7v534.5h89.1v-445.5h133.6v579.1H321.8v-222.7h-89.1v222.7H99.1v-445.5H10v490c0,12.2,4.4,22.6,13.1,31.4s19.2,13.1,31.4,13.1h890.9c12.2,0,22.6-4.4,31.4-13.1c8.8-8.8,13.1-19.2,13.1-31.4v-44.5H767.3v-668.2H455.5z M633.6,930v89.1h267.3v668.2H990V974.5c0-12.2-4.4-22.6-13.1-31.4c-8.8-8.8-19.2-13.1-31.4-13.1H633.6z M54.5,930c-12.2,0-22.6,4.4-31.4,13.1c-8.8,8.8-13.1,19.2-13.1,31.4v267.3h222.7v222.7h89.1v-311.8H99.1v-133.6h356.4V930H54.5z"/></g></g>
</svg>