<?xml version="1.0" encoding="utf-8"?>
<!-- Svg Vector Icons : http://www.onlinewebfonts.com/icon -->
<!DOCTYPE svg PUBLIC "-//W3C//DTD SVG 1.1//EN" "http://www.w3.org/Graphics/SVG/1.1/DTD/svg11.dtd">
<svg id="reward" version="1.1" xmlns="http://www.w3.org/2000/svg" xmlns:xlink="http://www.w3.org/1999/xlink" x="0px" y="0px" viewBox="0 0 1000 1000" enable-background="new 0 0 1000 1000" xml:space="preserve">
<metadata> Svg Vector Icons : http://www.onlinewebfonts.com/icon </metadata>
<g><path d="M504.4,990c-230,0-346.6-85-346.6-252.8c0-139,111-289.6,215.5-360.7c2.7-1.9,6-2.8,9.2-2.8h236.9c3.5,0,6.8,1.1,9.6,3.1c115.6,83.5,213.2,248.5,213.2,360.5C842.2,905,728.6,990,504.4,990z M614,406.5H387.6c-97.6,68.4-197,209.3-197,330.7c0,148,102.6,219.9,313.7,219.9c208.1,0,304.9-69.9,304.9-219.9C809.3,637.5,718.6,484.3,614,406.5z M515.3,677.2v30h57.8c9.1,0,16.4,7.4,16.4,16.4c0,9.1-7.4,16.4-16.4,16.4h-57.8v41.4h57.8c9.1,0,16.4,7.4,16.4,16.4c0,9.1-7.4,16.4-16.4,16.4h-57.8v53.8c0,9.1-7.4,16.4-16.4,16.4c-9.1,0-16.4-7.4-16.4-16.4v-53.8h-54.8c-9.1,0-16.4-7.4-16.4-16.4c0-9.1,7.4-16.4,16.4-16.4h54.8v-41.4h-54.8c-9.1,0-16.4-7.4-16.4-16.4c0-9.1,7.4-16.4,16.4-16.4h54.8v-30.1l-108-139.3c-5.6-7.2-4.2-17.5,2.9-23.1c7.2-5.6,17.5-4.2,23.1,2.9L499,644.8l100.6-127.2c5.6-7.1,16-8.3,23.1-2.7c7.1,5.6,8.3,16,2.7,23.1L515.3,677.2z M615.5,314.5c9.1,0,16.4,7.4,16.4,16.4c0,9.1-7.4,16.4-16.4,16.4H380c-9.1,0-16.4-7.4-16.4-16.4c0-9.1,7.4-16.4,16.4-16.4H615.5z M609.4,272c0,9.1-7.4,16.4-16.4,16.4H399.7c-9.1,0-16.4-7.4-16.4-16.4c0-51.8-62.8-144.5-87-175.9c-3.8-5-4.5-11.7-1.7-17.3c2.8-5.6,8.5-9.2,14.8-9.2c49.1,0,99,35.5,124.7,56.9l47.3-106.7c2.6-5.9,8.5-9.8,15-9.8c6.5,0,12.4,3.8,15,9.8l47.4,106.7c25.6-21.4,75.6-56.9,124.7-56.9c6.3,0,12,3.6,14.8,9.2c2.8,5.6,2.1,12.3-1.7,17.3C672.2,127.4,609.4,220.2,609.4,272z M564.5,165.4c-3.8,3.8-9.3,5.5-14.6,4.5c-5.3-1-9.8-4.5-12-9.5L496.3,67l-41.5,93.5c-2.2,5-6.7,8.5-12,9.5c-5.3,1-10.8-0.7-14.6-4.5c-0.5-0.5-38.5-38-81.3-54.9c24.9,37.1,60.6,97,67.9,145h163c7.3-47.9,42.9-107.7,67.8-144.8C610.7,124.7,577.4,152.6,564.5,165.4z" fill="#ffad05"/></g>
</svg>