<?xml version="1.0" encoding="utf-8"?>
<!-- Svg Vector Icons : http://www.onlinewebfonts.com/icon -->
<!DOCTYPE svg PUBLIC "-//W3C//DTD SVG 1.1//EN" "http://www.w3.org/Graphics/SVG/1.1/DTD/svg11.dtd">
<svg id="robot" version="1.1" xmlns="http://www.w3.org/2000/svg" xmlns:xlink="http://www.w3.org/1999/xlink" x="0px" y="0px" viewBox="0 0 1000 1000" enable-background="new 0 0 1000 1000" xml:space="preserve">
<metadata> Svg Vector Icons : http://www.onlinewebfonts.com/icon </metadata>
<g><g transform="matrix(1 0 0 -1 0 1952)"><path d="M801,1372c-35.2,0-63.7-28.6-63.7-63.7c0-35.2,28.5-63.7,63.7-63.7c35.2,0,63.7,28.5,63.7,63.7C864.7,1343.4,836.2,1372,801,1372L801,1372z M818.3,1278.1H784c-8.7,0-15.8,7.1-15.8,15.8c0,8.7,7.1,15.8,15.8,15.8h34.2c8.7,0,15.8-7.1,15.8-15.8C834.1,1285.2,827,1278.1,818.3,1278.1L818.3,1278.1z M755,1404.6h93.5c8.7,0,15.8,7.1,15.8,15.8c0,8.7-7.1,14.5-15.8,14.5H755c-8.7,0-15.8-5.8-15.8-14.5C739.2,1411.7,746.3,1404.6,755,1404.6z M391.5,1023.9h-94.8c-17.5,0-31.6-12.8-31.6-30.3c0-17.5,14.2-31.6,31.6-31.6h94.8c17.5,0,31.6,14.2,31.6,31.6C423.1,1011.1,409,1023.9,391.5,1023.9L391.5,1023.9z M707.6,1023.9h-94.8c-17.4,0-31.6-12.8-31.6-30.3c0-17.5,14.2-31.6,31.6-31.6h94.8c17.5,0,31.6,14.2,31.6,31.6C739.2,1011.1,725.1,1023.9,707.6,1023.9z M755,1467.8l93.5,0c8.7,0,15.8,7.1,15.8,15.8c0,8.7-7.1,14.5-15.8,14.5H755c-8.7,0-15.8-5.8-15.8-14.5C739.2,1474.9,746.3,1467.8,755,1467.8L755,1467.8z M755,1594.3c8.7,0,15.8,7.1,15.8,15.8c0,8.7-7.1,15.8-15.8,15.8c-8.7,0-15.8-7.1-15.8-15.8C739.2,1601.3,746.3,1594.3,755,1594.3z M755,1531H817c8.7,0,15.8,7.1,15.8,15.8c0,8.7-7.1,14.5-15.8,14.5H755c-8.7,0-15.8-5.8-15.8-14.5C739.2,1538.1,746.3,1531,755,1531z M249.3,1594.3c8.7,0,15.8,7.1,15.8,15.8c0,8.7-7.1,15.8-15.8,15.8c-8.7,0-15.8-7.1-15.8-15.8C233.4,1601.3,240.5,1594.3,249.3,1594.3z M327,1214.9c-17.5,0-31.6-14.2-31.6-31.6v-94.8c0-17.5,14.2-31.6,31.6-31.6h30.3c17.5,0,31.6,14.2,31.6,31.6v94.8c0,17.5-14.2,31.6-31.6,31.6H327z M247.9,1498.1h-93.5c-8.7,0-15.8-5.8-15.8-14.5c0-8.7,7.1-15.8,15.8-15.8h93.5c0,0,15.8,7.1,15.8,15.8C263.7,1492.4,256.7,1498.1,247.9,1498.1L247.9,1498.1z M186,1531h63.2c8.7,0,15.8,7.1,15.8,15.8c0,8.7-7.1,14.5-15.8,14.5H186c-8.7,0-15.8-5.8-15.8-14.5C170.2,1538.1,177.3,1531,186,1531z M673.4,1214.9h-30.3c-17.4,0-31.6-14.2-31.6-31.6v-94.8c0-17.4,14.2-31.6,31.6-31.6h30.3c17.5,0,31.6,14.2,31.6,31.6v94.8C705,1200.8,690.9,1214.9,673.4,1214.9z M198.5,1372.3c-34.9,0-63.1-28.2-63.1-63.1s28.3-63.1,63.1-63.1c34.9,0,63.1,28.2,63.1,63.1S233.3,1372.3,198.5,1372.3z M217.6,1278.1h-34.3c-8.7,0-15.8,7.1-15.8,15.8c0,8.7,7.1,15.8,15.8,15.8h34.3c8.7,0,15.8-7.1,15.8-15.8C233.4,1285.2,226.4,1278.1,217.6,1278.1L217.6,1278.1z M247.9,1434.9h-93.5c-8.7,0-15.8-5.8-15.8-14.5c0-8.7,7.1-15.8,15.8-15.8h93.5c8.7,0,15.8,7.1,15.8,15.8C263.7,1429.1,256.7,1434.9,247.9,1434.9z M342.8,1246.5h314.8c34.9,0,63.2,28.3,63.2,63.2v252.9c0,34.9-28.3,61.9-63.2,61.9H342.8c-34.9,0-63.2-27-63.2-61.9v-252.9C279.5,1274.8,307.8,1246.5,342.8,1246.5L342.8,1246.5z M358.6,1657.5h283.2c17.4,0,31.6,14.1,31.6,31.6v221.3c0,17.5-14.2,31.6-31.6,31.6H358.6c-17.5,0-31.6-14.2-31.6-31.6v-221.3C327,1671.6,341.1,1657.5,358.6,1657.5z M423.1,1687.8h-34.3v32.9h34.3V1687.8z M422.1,1780.7c-18,0-32.6,14.6-32.6,32.6s14.6,32.6,32.6,32.6c18,0,32.6-14.6,32.6-32.6C454.7,1795.3,440.1,1780.7,422.1,1780.7z M486.4,1687.8h-34.3v32.9h34.3V1687.8z M548.2,1687.8h-32.9v32.9h32.9V1687.8z M612.8,1687.8h-34.2v32.9h34.2V1687.8z M579.9,1781.3c-18.2,0-32.9,14.7-32.9,32.9c0,18.2,14.8,32.9,32.9,32.9c18.2,0,32.9-14.7,32.9-32.9C612.8,1796,598.1,1781.3,579.9,1781.3z M641.8,1910.4v-31.6H518V1783h-34.9v95.8H357.3l-0.7,31.6H641.8L641.8,1910.4z"/></g></g>
</svg>